<?xml version="1.0" encoding="UTF-8"?>
<svg xmlns="http://www.w3.org/2000/svg" viewBox="0 0 103.4 70.4">
  <path class="st0" d="M29.5 28.6l-9.8-4.4-9.8 4.4L5 30.8v14.9c0 5.4 3.4 9.1 8.4 9.1l6.4-3v11.9c-3-2-7.2-4.3-9.8-4.3L0 63.8c5.9 0 14.8 6.6 14.8 6.6l8.8-3.9 6-2.7-.1-35.2zM19.7 49c-3.5-.9-4.9-3-4.9-5.6V30.8l4.9 2.2v16zm54.2.5V8.8L64 13.2v40c0 8.3 3.2 12.7 6.3 12.7l11.2-5.3c-5.1 0-7.6-3.8-7.6-11.1z"></path>
  <path class="st0" d="M103.4 26.4V0l-9.8 4.4V22l-9.8 4.4-4.9 2.2v19.2c0 5.4 3.6 7.8 8.6 7.8l11.1-5 4.9-2.2v-22zM88.6 44.1V28.6l4.9 2.2v19c-3.4-1-4.9-3.2-4.9-5.7zM59.1 24.2l-9.8-4.4-9.8 4.4-5 2.2v17.8c0 5.4 3.6 9.2 8.6 9.2l7.9-3.6 8.2-3.7V24.2zM44.2 41.9V26.4l5 2.2v19.1c-3.4-1-5-3.2-5-5.8z"></path>
</svg>
